<?xml version="1.0" encoding="UTF-8"?>
<svg version="1.1" xmlns="http://www.w3.org/2000/svg" width="562" height="501">
<path d="M0 0 C16.47552299 15.64069768 23.80324496 39.50766258 24.4855957 61.8581543 C24.5117706 63.32201137 24.53193486 64.78598516 24.546875 66.25 C24.55657822 67.04818146 24.56628143 67.84636292 24.57627869 68.66873169 C24.60118151 71.25446663 24.61381431 73.83993828 24.62109375 76.42578125 C24.62371216 77.31244476 24.62633057 78.19910828 24.62902832 79.11264038 C24.6361785 101.8085749 21.48245447 123.63929104 16.30859375 145.73828125 C17.22511719 145.92390625 17.22511719 145.92390625 18.16015625 146.11328125 C56.76347389 154.81262044 102.45820003 176.11544157 124.99609375 210.11328125 C132.86638554 222.82955046 135.53517389 236.45270075 132.625 251.203125 C131.68883136 254.15924257 130.60022869 256.92016865 129.30859375 259.73828125 C128.90769531 260.63546875 128.50679687 261.53265625 128.09375 262.45703125 C108.97389289 301.02926473 61.40585448 319.14235108 23.328125 332.05078125 C21.65525806 332.61420295 19.98220661 333.17707914 18.30859375 333.73828125 C19.30881729 339.76370813 20.31476587 345.78800467 21.34375 351.80859375 C21.68619792 353.82682292 22.02864583 355.84505208 22.37109375 357.86328125 C22.54447266 358.87003906 22.71785156 359.87679688 22.89648438 360.9140625 C24.8880364 372.71076528 25.52147193 384.16489242 25.54882812 396.11157227 C25.55845436 398.63917988 25.58952264 401.16594429 25.62109375 403.69335938 C25.71688488 418.31094375 24.56404466 433.25574119 19.55859375 447.11328125 C19.30182861 447.84675781 19.04506348 448.58023437 18.78051758 449.3359375 C13.17277877 464.79811777 4.57480206 478.41593961 -10.69140625 485.73828125 C-33.39370088 494.25796197 -56.92014271 488.56682778 -78.27294922 478.87988281 C-91.67975466 472.55137259 -103.84085439 464.60578327 -115.69140625 455.73828125 C-116.3153125 455.27276855 -116.93921875 454.80725586 -117.58203125 454.32763672 C-124.89764756 448.82724678 -131.7974001 443.02566311 -138.34277344 436.62109375 C-141.27952711 433.80028957 -143.78458923 431.94975295 -147.69140625 430.73828125 C-148.32304687 431.33253906 -148.9546875 431.92679687 -149.60546875 432.5390625 C-156.98504256 439.37633333 -164.68510694 445.65128572 -172.69140625 451.73828125 C-173.30032715 452.20411621 -173.90924805 452.66995117 -174.53662109 453.14990234 C-201.13161311 473.41308694 -235.01049375 493.01418712 -269.67578125 489.4296875 C-284.27546326 487.33607828 -295.71000859 480.44073795 -304.69140625 468.73828125 C-315.87258618 453.15319318 -320.14980548 431.67076028 -320.69140625 412.73828125 C-320.71187012 412.08666016 -320.73233398 411.43503906 -320.75341797 410.76367188 C-321.45822563 384.92460753 -317.40612548 359.87246306 -311.69140625 334.73828125 C-312.36800293 334.56159912 -313.04459961 334.38491699 -313.74169922 334.20288086 C-347.97448354 325.09134674 -380.76238469 309.07795823 -406.69140625 284.73828125 C-407.59439453 283.949375 -407.59439453 283.949375 -408.515625 283.14453125 C-420.15953263 272.50487673 -428.49374423 257.10502968 -429.22583008 241.29516602 C-429.4545926 223.51733458 -421.76324775 209.16842942 -409.56640625 196.61328125 C-408.61064561 195.65238211 -407.65237597 194.69397092 -406.69140625 193.73828125 C-405.82515625 192.87203125 -404.95890625 192.00578125 -404.06640625 191.11328125 C-396.91122283 184.29882085 -389.0874471 178.88196526 -380.69140625 173.73828125 C-380.02818359 173.33109863 -379.36496094 172.92391602 -378.68164062 172.50439453 C-357.82166926 159.89941183 -334.96428111 151.65977309 -311.69140625 144.73828125 C-311.86269043 143.88298828 -312.03397461 143.02769531 -312.21044922 142.14648438 C-319.79277737 104.11708968 -325.73160435 65.54991461 -313.69140625 27.73828125 C-313.39492188 26.76761719 -313.0984375 25.79695313 -312.79296875 24.796875 C-307.71844972 10.29492384 -297.40822731 -0.22507544 -283.9140625 -7 C-263.56068241 -14.96865669 -240.67617623 -9.41583941 -221.25634766 -1.38623047 C-208.77562415 4.0855202 -196.70451952 10.70484319 -185.69140625 18.73828125 C-185.08522461 19.1775293 -184.47904297 19.61677734 -183.85449219 20.06933594 C-171.19123902 29.27840779 -159.3172874 39.25395949 -147.69140625 49.73828125 C-143.76703602 46.41109779 -139.91717003 43.03222697 -136.12890625 39.55078125 C-129.90228789 33.94307375 -123.37655711 28.78399867 -116.69140625 23.73828125 C-116.05348145 23.25456055 -115.41555664 22.77083984 -114.75830078 22.27246094 C-94.6411433 7.1584051 -71.71693279 -5.81826588 -46.69140625 -10.26171875 C-45.60859375 -10.45701172 -45.60859375 -10.45701172 -44.50390625 -10.65625 C-28.67807889 -13.04926825 -12.46483814 -10.47480592 0 0 Z M-129.69140625 67.73828125 C-127.47685181 71.76673061 -124.85976729 74.8554494 -121.69140625 78.17578125 C-116.106062 84.13528121 -111.10217575 90.44554241 -106.11816406 96.90869141 C-104.65979031 98.77882367 -103.17687573 100.62639535 -101.68359375 102.46875 C-101.17368896 103.09869873 -100.66378418 103.72864746 -100.13842773 104.37768555 C-99.18772976 105.54949038 -98.2344719 106.71922748 -97.27758789 107.88598633 C-96.82504639 108.44568115 -96.37250488 109.00537598 -95.90625 109.58203125 C-95.40738281 110.18668213 -94.90851563 110.79133301 -94.39453125 111.41430664 C-92.69140625 113.73828125 -92.69140625 113.73828125 -90.72265625 117.21655273 C-86.26159272 124.93334916 -86.26159272 124.93334916 -78.77807617 129.25244141 C-74.16473185 130.22033682 -69.51167722 130.50759799 -64.81640625 130.80078125 C-63.12472341 130.95457246 -61.43370051 131.11579172 -59.7434082 131.28417969 C-57.18603818 131.53845727 -54.62920835 131.78868989 -52.06922913 132.01535034 C-44.23577247 132.71513415 -36.60074347 134.00371679 -28.87890625 135.48828125 C-21.81872843 136.83144452 -14.84842129 138.05025055 -7.69140625 138.73828125 C-3.78733552 120.08797763 -0.58220782 101.81447096 0.30859375 82.73828125 C0.35113281 81.85398437 0.39367187 80.9696875 0.4375 80.05859375 C0.89933634 60.29199834 -1.56689687 36.56041992 -14.3828125 20.63671875 C-19.78221047 15.55051092 -26.46364938 13.63960878 -33.75390625 13.30078125 C-70.86705893 14.58943238 -103.64246951 44.24712125 -129.69140625 67.73828125 Z M-283.03125 22.48828125 C-300.50359169 46.16844317 -296.95144561 82.09048268 -293.21826172 109.29882812 C-291.36820362 124.4216869 -291.36820362 124.4216869 -286.69140625 138.73828125 C-279.58933212 137.67731011 -272.50297472 136.55041747 -265.42578125 135.3359375 C-264.70548737 135.21328522 -263.98519348 135.09063293 -263.24307251 134.96426392 C-259.37995936 134.30628585 -255.51892328 133.63825212 -251.65966797 132.95800781 C-244.52088639 131.72126368 -237.53044892 130.61179319 -230.27734375 130.3125 C-218.28137352 130.05721817 -218.28137352 130.05721817 -208.40625 124.01171875 C-205.24155097 120.25136927 -202.61362556 116.22441393 -200.08789062 112.01513672 C-198.11610075 108.8002919 -195.84423277 105.87700861 -193.50390625 102.92578125 C-192.72015625 101.90484375 -191.93640625 100.88390625 -191.12890625 99.83203125 C-185.08183395 92.15690102 -178.65370339 84.7908221 -172.1953125 77.4609375 C-169.98086319 74.92438647 -167.83415129 72.33554797 -165.69140625 69.73828125 C-173.89966815 49.42869609 -211.62171584 30.28833349 -230.69140625 21.73828125 C-246.50032076 15.44963535 -269.66650665 7.87535002 -283.03125 22.48828125 Z M-150.69140625 89.55078125 C-154.47513517 93.38834371 -157.84651403 97.49983056 -161.21875 101.69921875 C-162.97663306 103.85977644 -164.74960278 105.98394804 -166.5703125 108.08984375 C-167.05790039 108.65558105 -167.54548828 109.22131836 -168.04785156 109.80419922 C-168.98929798 110.89308208 -169.9349898 111.9783151 -170.88574219 113.05908203 C-174.14671064 116.84512168 -176.12535763 120.24769616 -178.69140625 124.73828125 C-157.90140625 124.73828125 -137.11140625 124.73828125 -115.69140625 124.73828125 C-123.39167341 114.47125837 -131.04886241 104.31647402 -139.74609375 94.87109375 C-141.4578417 92.99435805 -143.08839186 91.08269893 -144.69140625 89.11328125 C-145.35140625 88.32953125 -146.01140625 87.54578125 -146.69140625 86.73828125 C-148.48331943 86.73828125 -149.4729337 88.34641139 -150.69140625 89.55078125 Z M-186.7184124 149.77256966 C-188.64493004 149.81508796 -190.57053813 149.89403024 -192.49584961 149.97436523 C-193.59263535 150.01544907 -194.68942108 150.0565329 -195.81944275 150.09886169 C-199.4208355 150.9006828 -200.62827349 152.23193695 -202.8828125 155.09375 C-204.05657188 157.0079502 -205.17825357 158.95478028 -206.25390625 160.92578125 C-206.86903076 161.95791748 -207.48415527 162.99005371 -208.11791992 164.0534668 C-209.39094299 166.20121312 -210.64259481 168.36176405 -211.87304688 170.53417969 C-213.59249048 173.56398337 -215.36830721 176.54942256 -217.17578125 179.52734375 C-220.41969428 184.89037465 -223.57488733 190.30037008 -226.69140625 195.73828125 C-227.12759277 196.49882812 -227.5637793 197.259375 -228.01318359 198.04296875 C-230.06706658 201.6430693 -232.0734188 205.26057527 -234.0234375 208.91796875 C-236.0258351 212.64222339 -238.2365786 216.18497873 -240.515625 219.74609375 C-247.17804076 229.82411321 -247.17804076 229.82411321 -249.58935547 241.32128906 C-248.23244509 246.55462871 -245.37104396 250.83554214 -242.33398438 255.24951172 C-239.98819342 258.80376157 -238.09574646 262.5545371 -236.14233398 266.33447266 C-228.95243814 280.1528844 -220.90874958 293.5123721 -212.69140625 306.73828125 C-212.05428711 307.76904785 -211.41716797 308.79981445 -210.76074219 309.86181641 C-208.90747961 312.83674096 -207.02492775 315.79046704 -205.12890625 318.73828125 C-204.56953369 319.63506592 -204.01016113 320.53185059 -203.43383789 321.45581055 C-200.51335833 326.09181014 -200.51335833 326.09181014 -195.94140625 328.765625 C-194.86890625 328.75660156 -193.79640625 328.74757813 -192.69140625 328.73828125 C-191.12990202 328.8391135 -189.5687313 328.9451654 -188.0078125 329.0546875 C-160.36154941 330.335766 -132.31001822 330.68044726 -104.69140625 328.73828125 C-103.94455566 328.70307373 -103.19770508 328.66786621 -102.42822266 328.6315918 C-99.14954191 328.38709911 -97.11677804 328.10142272 -94.58203125 325.9375 C-94.040625 325.10863281 -93.49921875 324.27976562 -92.94140625 323.42578125 C-92.27882813 322.42289063 -91.61625 321.42 -90.93359375 320.38671875 C-90.18224928 319.17300845 -89.43516858 317.95665263 -88.69140625 316.73828125 C-88.04993652 315.7023584 -88.04993652 315.7023584 -87.39550781 314.64550781 C-84.3112114 309.64576973 -81.31164307 304.59902989 -78.33740234 299.53320312 C-76.68298905 296.72398874 -75.01079044 293.92597357 -73.3359375 291.12890625 C-66.69072468 279.9645335 -60.41975261 268.64527079 -54.44140625 257.11328125 C-54.11490082 256.48600128 -53.78839539 255.85872131 -53.45199585 255.21243286 C-47.5130437 245.61927496 -47.5130437 245.61927496 -46.43554688 235.14306641 C-47.13454102 233.84828369 -47.13454102 233.84828369 -47.84765625 232.52734375 C-48.36851807 231.54209717 -48.88937988 230.55685059 -49.42602539 229.54174805 C-50.00860107 228.492854 -50.59117676 227.44395996 -51.19140625 226.36328125 C-51.7836499 225.26346924 -52.37589355 224.16365723 -52.98608398 223.03051758 C-58.75620559 212.40406021 -64.8197678 201.94459223 -71.01123047 191.55908203 C-72.62361987 188.85208594 -74.22329945 186.13796288 -75.8203125 183.421875 C-78.24588973 179.30690932 -80.72848778 175.23023692 -83.23242188 171.16259766 C-84.74653964 168.64666904 -86.17962559 166.093742 -87.61328125 163.53125 C-88.59572806 161.86995196 -89.58003563 160.20975259 -90.56640625 158.55078125 C-90.9752002 157.77750488 -91.38399414 157.00422852 -91.80517578 156.20751953 C-93.26718224 153.83304745 -94.460193 152.42281301 -96.69140625 150.73828125 C-99.57437382 150.11646803 -99.57437382 150.11646803 -102.84814453 150.03833008 C-104.10096222 149.97705429 -105.35377991 149.9157785 -106.64456177 149.85264587 C-113.68093879 149.63003505 -120.71456901 149.59483563 -127.75390625 149.60546875 C-129.35945653 149.60479255 -130.96500671 149.60381991 -132.57055664 149.60256958 C-135.91195667 149.60110747 -139.25332971 149.60319876 -142.59472656 149.60791016 C-146.83708344 149.61360651 -151.079377 149.61031945 -155.32173157 149.60433769 C-158.63009095 149.60069157 -161.93843579 149.60188909 -165.24679565 149.60446548 C-166.80939746 149.6051236 -168.37200067 149.60434628 -169.93460083 149.60198593 C-175.53133327 149.59538323 -181.12277304 149.67791501 -186.7184124 149.77256966 Z M-63.69140625 154.73828125 C-62.42678336 158.08270206 -60.99298955 161.10170063 -59.14453125 164.16015625 C-58.38148682 165.43379028 -58.38148682 165.43379028 -57.60302734 166.7331543 C-57.05469238 167.64234619 -56.50635742 168.55153809 -55.94140625 169.48828125 C-50.1799921 179.11489617 -44.66038359 188.8586935 -39.27441406 198.70019531 C-38.71850586 199.70663086 -38.16259766 200.71306641 -37.58984375 201.75 C-37.10177246 202.64162842 -36.61370117 203.53325684 -36.11083984 204.4519043 C-34.80765414 206.55103297 -33.51857683 208.09206888 -31.69140625 209.73828125 C-29.90753918 205.13638218 -28.12968227 200.53221896 -26.35693359 195.92602539 C-25.75531879 194.36519593 -25.15217447 192.804955 -24.54736328 191.24536133 C-20.89792855 181.83127222 -17.48388073 172.44886537 -14.69140625 162.73828125 C-18.86758991 161.91702822 -23.04445336 161.09934363 -27.22192383 160.28466797 C-28.63681949 160.00825485 -30.05153972 159.73094185 -31.46606445 159.45263672 C-47.46164787 155.93199434 -47.46164787 155.93199434 -63.69140625 154.73828125 Z M-244.65234375 155.98046875 C-245.7764415 156.17311813 -245.7764415 156.17311813 -246.92324829 156.36965942 C-248.50197978 156.64134753 -250.08029403 156.91547015 -251.65820312 157.19189453 C-254.05107206 157.61059808 -256.44528816 158.02075291 -258.83984375 158.4296875 C-260.38159823 158.69610694 -261.92326782 158.96301815 -263.46484375 159.23046875 C-264.17031342 159.35138885 -264.87578308 159.47230896 -265.60263062 159.59689331 C-270.36263266 160.43577528 -275.01307529 161.52266226 -279.69140625 162.73828125 C-278.26685509 170.40894135 -275.72810134 177.55985517 -273.00561523 184.85009766 C-272.25361979 186.86404843 -271.50988908 188.88089952 -270.76757812 190.8984375 C-268.54471662 196.91080579 -266.25101875 202.86113773 -263.69140625 208.73828125 C-263.03140625 208.73828125 -262.37140625 208.73828125 -261.69140625 208.73828125 C-261.3761499 208.14217041 -261.06089355 207.54605957 -260.73608398 206.93188477 C-252.66868102 191.73043757 -244.16651926 176.90858273 -235.20263672 162.2199707 C-233.68791852 159.73255382 -232.18718611 157.23712336 -230.69140625 154.73828125 C-235.46640883 154.59013971 -239.96544526 155.15495779 -244.65234375 155.98046875 Z M-391.43359375 213.4140625 C-398.26073473 220.44200174 -403.66016121 228.47409808 -404.25390625 238.42578125 C-403.87843118 250.48604046 -395.99040511 260.529787 -387.69140625 268.73828125 C-383.29705974 272.76894824 -378.56644171 276.31385986 -373.69140625 279.73828125 C-373.10182129 280.15287598 -372.51223633 280.5674707 -371.90478516 280.99462891 C-355.50493182 292.29668572 -337.05693023 300.50192645 -318.31640625 307.05078125 C-317.1989502 307.44209229 -316.08149414 307.83340332 -314.93017578 308.23657227 C-309.35806474 310.41584174 -309.35806474 310.41584174 -303.69140625 309.73828125 C-302.69477734 307.44730165 -301.90290548 305.27258992 -301.16015625 302.8984375 C-300.67973771 301.44000624 -300.19926673 299.98159227 -299.71875 298.52319336 C-299.4697998 297.75248505 -299.22084961 296.98177673 -298.96435547 296.18771362 C-294.32351204 281.85639775 -289.11890694 267.96903545 -283.06640625 254.171875 C-282.67316162 253.25720459 -282.27991699 252.34253418 -281.87475586 251.40014648 C-281.0850193 249.6236873 -280.24385132 247.86922908 -279.35375977 246.14086914 C-277.08026035 241.49715793 -277.08026035 241.49715793 -277.10888672 236.45922852 C-278.12104331 233.95777109 -279.32076043 231.66099177 -280.62890625 229.30078125 C-285.65946549 219.31502363 -289.72036249 209.15759404 -293.56640625 198.67578125 C-294.11836678 197.18756602 -294.67036795 195.69936586 -295.22241211 194.21118164 C-298.32351699 185.79468814 -301.16529074 177.34782889 -303.69140625 168.73828125 C-332.41842848 168.73828125 -371.50519283 195.05558384 -391.43359375 213.4140625 Z M9.30859375 169.73828125 C6.80591517 175.83350111 4.49061526 181.96895306 2.31494141 188.18798828 C-2.08815175 200.75359949 -7.04021375 213.02029363 -12.30859375 225.24609375 C-12.71948242 226.20290039 -13.13037109 227.15970703 -13.55371094 228.14550781 C-14.24750899 229.72665272 -14.96191011 231.29922082 -15.71191406 232.85449219 C-17.54305047 236.70547781 -17.7955575 238.6598508 -16.69140625 242.73828125 C-15.96216032 244.55061652 -15.17838604 246.3415121 -14.35546875 248.11328125 C-13.87335938 249.16708984 -13.39125 250.22089844 -12.89453125 251.30664062 C-12.37375 252.43908203 -11.85296875 253.57152344 -11.31640625 254.73828125 C-3.17408369 272.72416044 3.59032107 291.17858383 10.30859375 309.73828125 C42.67459504 299.50416042 86.87482068 284.68134427 104.87890625 252.97265625 C108.67351683 245.03649927 110.30742687 238.83304698 107.43359375 230.33984375 C96.20515829 204.37408675 63.9520906 189.10350847 39.37109375 179.30078125 C24.72840206 172.76525924 24.72840206 172.76525924 9.30859375 169.73828125 Z M-32.69140625 267.73828125 C-32.94083984 268.23303955 -33.19027344 268.72779785 -33.44726562 269.23754883 C-40.45946433 283.06523958 -48.11320787 296.40722437 -56.08984375 309.69140625 C-59.0644575 314.65065241 -61.93179732 319.65642306 -64.69140625 324.73828125 C-52.17616017 323.29393767 -39.75999734 321.51789261 -27.37890625 319.17578125 C-26.24662598 318.96606689 -25.1143457 318.75635254 -23.94775391 318.5402832 C-22.89765137 318.3362085 -21.84754883 318.13213379 -20.765625 317.921875 C-19.83322998 317.74197021 -18.90083496 317.56206543 -17.94018555 317.37670898 C-15.51341725 316.8850319 -15.51341725 316.8850319 -13.69140625 314.73828125 C-19.26017052 298.8815284 -25.1687642 283.22809964 -31.69140625 267.73828125 C-32.02140625 267.73828125 -32.35140625 267.73828125 -32.69140625 267.73828125 Z M-263.69140625 269.73828125 C-271.03464729 288.68935604 -271.03464729 288.68935604 -277.94140625 307.80078125 C-278.3178125 308.88488281 -278.69421875 309.96898437 -279.08203125 311.0859375 C-279.7190676 313.85867904 -279.47169536 315.07843002 -278.69140625 317.73828125 C-254.8688137 322.7878687 -254.8688137 322.7878687 -230.69140625 324.73828125 C-234.56366214 317.52540762 -238.60402636 310.44446512 -242.81640625 303.42578125 C-249.41309919 292.3598024 -255.60631711 281.09202543 -261.69140625 269.73828125 C-262.35140625 269.73828125 -263.01140625 269.73828125 -263.69140625 269.73828125 Z M-286.69140625 340.73828125 C-289.38064084 347.92530001 -290.78962213 355.06131619 -291.99902344 362.63037109 C-292.31491174 364.60394401 -292.6437556 366.57542887 -292.97265625 368.546875 C-297.2120055 394.48017812 -300.99831762 430.42252649 -284.75390625 453.30078125 C-278.97559084 460.16436402 -273.15852987 463.88432934 -264.265625 465.05859375 C-228.27495057 466.69701595 -192.56540712 437.37402388 -167.69140625 414.73828125 C-166.68526547 413.74445997 -165.68348823 412.74613707 -164.69140625 411.73828125 C-166.28942389 407.87564433 -168.91331801 405.1566574 -171.75390625 402.17578125 C-176.99591923 396.56154418 -181.90861088 390.75140388 -186.69140625 384.73828125 C-187.09794434 384.23135742 -187.50448242 383.72443359 -187.92333984 383.20214844 C-188.7909905 382.11965411 -189.6551451 381.03435001 -190.51611328 379.9465332 C-191.4376853 378.79134878 -192.3727344 377.64680867 -193.31982422 376.51245117 C-196.11229064 373.08845487 -198.20440756 369.81310055 -200.0625 365.796875 C-203.22699002 359.57047258 -206.67518767 353.49182353 -213.62805176 351.0612793 C-223.66693199 348.47291271 -234.23955426 348.086141 -244.5428009 347.39886475 C-253.90828676 346.74314565 -263.03791608 345.16485692 -272.25390625 343.42578125 C-273.73000311 343.15442872 -275.20623616 342.8838158 -276.68261719 342.61401367 C-280.0212675 342.00114449 -283.35712665 341.37455894 -286.69140625 340.73828125 Z M-14.26171875 340.875 C-31.63666167 344.46051141 -48.95658691 347.08618151 -66.59814453 349.00073242 C-67.43220825 349.09555908 -68.26627197 349.19038574 -69.12561035 349.28808594 C-70.68867772 349.46552246 -72.25288908 349.63326731 -73.8182373 349.78930664 C-78.93415338 350.37807916 -82.64647919 351.45529114 -86.13842773 355.35375977 C-86.71959351 356.22665649 -86.71959351 356.22665649 -87.3125 357.1171875 C-87.76568604 357.78202148 -88.21887207 358.44685547 -88.68579102 359.13183594 C-89.40013306 360.20546387 -89.40013306 360.20546387 -90.12890625 361.30078125 C-101.8343853 378.36905006 -114.98331325 394.25234684 -128.69140625 409.73828125 C-121.49047825 427.7824671 -89.78181561 444.00877181 -73.69140625 452.73828125 C-72.69367188 453.28484375 -71.6959375 453.83140625 -70.66796875 454.39453125 C-56.76546778 461.69986688 -41.15061752 467.11600253 -25.28125 464.3125 C-16.98906827 461.62537153 -11.92609688 455.75736698 -7.94140625 448.23828125 C7.63548333 415.61277256 2.14401949 373.5022296 -6.69140625 339.73828125 C-9.32483367 339.73828125 -11.682586 340.3272107 -14.26171875 340.875 Z M-178.69140625 353.73828125 C-176.77083736 357.57941903 -174.52796408 360.71541482 -171.87890625 364.05078125 C-171.40114746 364.65599609 -170.92338867 365.26121094 -170.43115234 365.88476562 C-165.67099134 371.85986312 -160.67600994 377.62336526 -155.63671875 383.36328125 C-152.93299045 386.44415043 -150.30219796 389.57835623 -147.69140625 392.73828125 C-143.02897708 388.92659792 -138.87837751 384.97128515 -135.00390625 380.36328125 C-134.25113403 379.47612427 -134.25113403 379.47612427 -133.4831543 378.57104492 C-129.51491805 373.83909411 -125.72492192 368.97877995 -122.00390625 364.05078125 C-121.48675049 363.36773926 -120.96959473 362.68469727 -120.43676758 361.98095703 C-119.96005615 361.34013184 -119.48334473 360.69930664 -118.9921875 360.0390625 C-118.36050659 359.19081909 -118.36050659 359.19081909 -117.71606445 358.32543945 C-116.5051138 356.59419848 -116.5051138 356.59419848 -115.69140625 353.73828125 C-136.48140625 353.73828125 -157.27140625 353.73828125 -178.69140625 353.73828125 Z " fill="#00D8FF" transform="translate(428.69140625,11.26171875)"/>
<path d="M0 0 C10.08442719 9.6843838 15.74023031 21.20751765 16.71875 35.31640625 C16.83991542 49.7593239 12.56543607 62.46074196 2.9921875 73.421875 C-6.87842075 83.41882704 -20.03564394 88.91248869 -34.07421875 89.14453125 C-47.0195727 88.98471207 -60.36485691 84.47660326 -69.93359375 75.51171875 C-79.73888426 65.04937269 -85.11368845 52.29049288 -85.82421875 37.89453125 C-85.0609406 22.42985219 -79.41386988 10.56334019 -68.44921875 -0.10546875 C-48.97108079 -17.73221934 -19.63318671 -16.87765174 0 0 Z " fill="#00D8FF" transform="translate(315.44921875,212.10546875)"/>
</svg>
